<svg xmlns="http://www.w3.org/2000/svg" aria-hidden="true"
  style="position:absolute;width:0;height:0;overflow:hidden">
  <defs>
    <symbol id="icon-x" viewBox="0 0 32 32">
      <path stroke-linecap="round" stroke-linejoin="round" stroke-width="3" d="M24 8 8 24M8 8l16 16" />
    </symbol>

    <symbol id="icon-star" viewBox="0 0 32 32">
      <path stroke-width="2.4"
        d="M12.4 9.394 16 2.572l3.6 6.822a2.2 2.2 0 0 0 1.571 1.141l7.601 1.315-5.376 5.532a2.2 2.2 0 0 0-.6 1.846l1.098 7.635-6.922-3.404a2.199 2.199 0 0 0-1.941 0l-6.922 3.404 1.098-7.635a2.2 2.2 0 0 0-.6-1.846L3.231 11.85l7.601-1.315a2.202 2.202 0 0 0 1.571-1.141zm16.635 2.185zM7.767 27.031z" />
    </symbol>

    <symbol id="icon-arrow-left" viewBox="0 0 32 32">
      <path
        d="M20.943 5.724a1.333 1.333 0 0 1 0 1.886l-8.391 8.391 8.391 8.391a1.333 1.333 0 1 1-1.886 1.886l-9.333-9.333a1.333 1.333 0 0 1 0-1.886l9.333-9.333a1.333 1.333 0 0 1 1.886 0z" />
    </symbol>

    <symbol id="icon-arrow-right" viewBox="0 0 32 32">
      <path
        d="M11.057 26.276a1.333 1.333 0 0 1 0-1.886l8.391-8.391-8.391-8.391a1.333 1.333 0 1 1 1.886-1.886l9.333 9.333a1.333 1.333 0 0 1 0 1.886l-9.333 9.333a1.333 1.333 0 0 1-1.886 0z" />
    </symbol>

    <symbol id="icon-microwave" viewBox="0 0 32 32">
      <path stroke-linecap="round" stroke-linejoin="round" stroke-width="2.24"
        d="M29.714 5.714H2.285a1.14 1.14 0 0 0-1.143 1.143v18.286a1.14 1.14 0 0 0 1.143 1.143h27.429a1.14 1.14 0 0 0 1.143-1.143V6.857a1.14 1.14 0 0 0-1.143-1.143z" />
      <path stroke-linecap="round" stroke-linejoin="round" stroke-width="2.24"
        d="M25.143 11.428h1.143M25.143 16h1.143m-6.858-5.714H6.857a1.14 1.14 0 0 0-1.143 1.143v9.143a1.14 1.14 0 0 0 1.143 1.143h12.571a1.14 1.14 0 0 0 1.143-1.143v-9.143a1.14 1.14 0 0 0-1.143-1.143z" />
    </symbol>

    <symbol id="icon-water" viewBox="0 0 32 32">
      <path stroke-miterlimit="10" stroke-width="2.4"
        d="M25 20c0 5.523-3.477 9-9 9s-9-3.477-9-9c0-5.927 6.452-13.928 8.431-16.242a.763.763 0 0 1 .57-.263.744.744 0 0 1 .57.263c1.978 2.314 8.43 10.316 8.43 16.242z" />
      <path stroke-linecap="round" stroke-linejoin="round" stroke-width="2.4"
        d="M21.5 20.5A4.5 4.5 0 0 1 17 25" />
    </symbol>

    <symbol id="icon-gas" viewBox="0 0 32 32">
      <path
        d="M25.072 13.991c-.368-.453-.816-.846-1.232-1.239-1.072-.907-2.288-1.556-3.311-2.508-2.384-2.206-2.912-5.848-1.392-8.644-1.52.348-2.848 1.133-3.983 1.995-4.143 3.143-5.775 8.689-3.823 13.449.064.151.128.302.128.499 0 .332-.24.635-.56.756-.368.151-.752.06-1.056-.181a.901.901 0 0 1-.224-.257c-1.808-2.161-2.096-5.259-.88-7.737-2.672 2.055-4.127 5.531-3.919 8.81.096.756.192 1.511.464 2.267.224.907.656 1.813 1.136 2.614 1.728 2.614 4.719 4.488 7.935 4.866 3.423.408 7.087-.181 9.71-2.418 2.927-2.508 3.951-6.528 2.448-9.974l-.208-.393c-.336-.695-1.232-1.904-1.232-1.904zm-5.055 9.521c-.448.363-1.184.756-1.76.907-1.792.604-3.583-.242-4.639-1.239 1.904-.423 3.039-1.753 3.375-3.098.272-1.209-.24-2.206-.448-3.37-.192-1.118-.16-2.07.272-3.113.304.574.624 1.148 1.008 1.602 1.232 1.511 3.167 2.176 3.583 4.231.064.212.096.423.096.65.048 1.239-.528 2.599-1.488 3.43z" />
    </symbol>

    <symbol id="icon-freezer" viewBox="0 0 32 32">
      <path stroke-linecap="round" stroke-linejoin="round" stroke-width="2.08"
        d="M23.4 3H8.607a2 2 0 0 0-2 2v20.387a2 2 0 0 0 2 2H23.4a2 2 0 0 0 2-2V5a2 2 0 0 0-2-2z" />
      <path stroke-linecap="round" stroke-linejoin="round" stroke-width="2.08"
        d="M6.607 13.127h18.787m-15.081-2.56v-4.04m0 12.913V15.4M8.427 27.387v.7a.911.911 0 0 0 .907.913h1.647a.911.911 0 0 0 .914-.914v-.7m8.205.001v.7a.913.913 0 0 0 .914.914h1.653a.913.913 0 0 0 .914-.914v-.7" />
    </symbol>

    <symbol id="icon-toilet-paper" viewBox="0 0 32 32">
      <path
        d="M24 4c1.939 0 3.269 1.647 4.04 3.313.761 1.653 1.224 3.811 1.287 6.145l.007.541v12.667a1.343 1.343 0 0 1-.409.962 1.352 1.352 0 0 1-.978.371l-.165-.019-3.781-.629-3.781.629a1.33 1.33 0 0 1-.483-.008l-.157-.041-3.579-1.193-3.579 1.193a1.327 1.327 0 0 1-1.135-.138 1.323 1.323 0 0 1-.61-.968l-.009-.159v-3.903c-.708.733-1.595 1.236-2.667 1.236-1.939 0-3.269-1.647-4.04-3.313-.819-1.78-1.293-4.145-1.293-6.687s.473-4.907 1.293-6.687c.735-1.592 1.981-3.164 3.78-3.303l.26-.011h16zm0 2.667H11.709c.12.213.229.429.329.647.821 1.78 1.295 4.145 1.295 6.687v10.817l2.245-.749c.274-.091.569-.091.843 0l3.687 1.229 3.673-.613c.144-.024.293-.024.437 0l2.448.409V14.001c0-2.245-.423-4.213-1.049-5.569C24.94 6.961 24.27 6.668 24 6.668zm-16 0c-.271 0-.94.293-1.617 1.764C5.756 9.787 5.334 11.755 5.334 14s.423 4.213 1.049 5.569C7.06 21.04 7.73 21.333 8 21.333s.94-.293 1.617-1.764c.627-1.356 1.049-3.324 1.049-5.569s-.423-4.213-1.049-5.569C8.94 6.96 8.27 6.667 8 6.667zm0 4.666c.736 0 1.333 1.193 1.333 2.667S8.736 16.667 8 16.667 6.667 15.474 6.667 14 7.264 11.333 8 11.333z" />
    </symbol>

    <symbol id="icon-plate" viewBox="0 0 32 32">
      <path fill="none" stroke="#101828" stroke-width="2.4"
        d="M12 6.667h16a1.335 1.335 0 0 1 1.334 1.334v17.333A1.335 1.335 0 0 1 28 26.668H12m0-20.001H4a1.33 1.33 0 0 0-1.333 1.334v17.333A1.333 1.333 0 0 0 4 26.668h8m0-20.001v20"
        style="stroke:var(--color1, #101828)" />
      <path fill="none" stroke="#101828" stroke-linecap="round" stroke-linejoin="round"
        stroke-width="2.4" d="M7.333 11.333V14m17.334-3.333-8 11.333"
        style="stroke:var(--color1, #101828)" />
      <path
        d="M8.667 18A1.333 1.333 0 1 0 6 18a1.333 1.333 0 0 0 2.667 0zm0 4A1.333 1.333 0 1 0 6 22a1.333 1.333 0 0 0 2.667 0z" />
    </symbol>

    <symbol id="icon-radio" viewBox="0 0 32 32">
      <path stroke-width="2.08"
        d="M2.667 18.667c0-5.028 0-7.543 1.563-9.104C5.791 8 8.306 8 13.334 8h5.333c5.028 0 7.543 0 9.104 1.563 1.563 1.561 1.563 4.076 1.563 9.104s0 7.543-1.563 9.104c-1.561 1.563-4.076 1.563-9.104 1.563h-5.333c-5.028 0-7.543 0-9.104-1.563-1.563-1.561-1.563-4.076-1.563-9.104z" />
      <path stroke-width="2.08"
        d="M6.667 14.667A2.668 2.668 0 0 1 9.334 12h13.333a2.668 2.668 0 0 1 0 5.334H9.334a2.668 2.668 0 0 1-2.667-2.667zm5.333 8a2 2 0 1 1-4.001-.001 2 2 0 0 1 4.001.001z" />
      <path stroke-linecap="round" stroke-width="2.08"
        d="M20 15.333v2m-2.667 5.334H24M8.667 8 20 2.667" />
    </symbol>

    <symbol id="icon-cd" viewBox="0 0 32 32">
      <path stroke-width="2.4"
        d="M16 28c6.627 0 12-5.373 12-12S22.627 4 16 4 4 9.373 4 16s5.373 12 12 12z" />
      <path stroke-linecap="round" stroke-width="2.4" d="M8.667 16A7.333 7.333 0 0 1 16 8.667" />
      <path stroke-width="2.4" d="M16 19.333a3.333 3.333 0 1 0 0-6.665 3.333 3.333 0 0 0 0 6.665z" />
    </symbol>

    <symbol id="icon-conditioner" viewBox="0 0 32 32">
      <path stroke-linecap="round" stroke-linejoin="round" stroke-width="2.4"
        d="M28.571 1.143H3.428a2.287 2.287 0 0 0-2.285 2.285v11.429a2.287 2.287 0 0 0 2.285 2.285h25.143a2.287 2.287 0 0 0 2.286-2.285V3.428a2.283 2.283 0 0 0-2.286-2.285z" />
      <path stroke-linecap="round" stroke-linejoin="round" stroke-width="2.4"
        d="M25.143 17.143v-4.571a2.283 2.283 0 0 0-2.286-2.285H9.143a2.287 2.287 0 0 0-2.285 2.285v4.571M5.714 28.572h.229a3.2 3.2 0 0 0 3.2-3.2v-2.514m17.143 5.714h-.229a3.2 3.2 0 0 1-3.2-3.2v-2.514M16 30.857v-8" />
    </symbol>

    <symbol id="icon-location" viewBox="0 0 32 32">
      <path stroke-linecap="round" stroke-linejoin="round" stroke-width="2.4"
        d="M28 13.333c0 9.333-12 17.333-12 17.333s-12-8-12-17.333a12.003 12.003 0 0 1 12-12 12.003 12.003 0 0 1 12 12z" />
      <path stroke-linecap="round" stroke-linejoin="round" stroke-width="2.4"
        d="M16 17.333a4 4 0 1 0 0-8 4 4 0 0 0 0 8z" />
    </symbol>

    <symbol id="icon-heart" viewBox="0 0 32 32">
      <path stroke-linecap="round" stroke-linejoin="round" stroke-width="3.067 "
        d="M27.787 6.147a7.326 7.326 0 0 0-10.373 0L16.001 7.56l-1.413-1.413a7.333 7.333 0 0 0-10.374 0 7.333 7.333 0 0 0 0 10.374l11.787 11.787 11.787-11.787a7.345 7.345 0 0 0 2.15-5.187 7.33 7.33 0 0 0-2.15-5.187z" />
    </symbol>

    <symbol id="icon-camper-1" viewBox="0 0 32 32">
      <path
        d="M1.826 6.06h8.686a.276.276 0 0 0 .194-.079l.834-.814c.243-.237.565-.367.908-.367H25.62a1.84 1.84 0 0 1 1.523.795l1.579 2.31c.224.328.244.747.054 1.095s-.56.563-.964.563h-6.789v.669H24.5c.922 0 1.751.534 2.112 1.361l2.036 4.655 1.783.696c.952.372 1.568 1.258 1.568 2.259v4.311c0 .643-.536 1.166-1.195 1.166h-2.075c-.241 1.427-1.515 2.52-3.045 2.52s-2.804-1.092-3.045-2.52H11.297c-.241 1.427-1.515 2.52-3.045 2.52s-2.804-1.092-3.045-2.52H1.062c-.586 0-1.063-.465-1.063-1.037V7.84c0-.982.819-1.781 1.826-1.781zm23.859 20.156c1.146 0 2.078-.909 2.078-2.027s-.932-2.027-2.078-2.027-2.078.909-2.078 2.027.932 2.027 2.078 2.027zm-4.661-2.52h1.615l.014-.073a2.138 2.138 0 0 1 .037-.165l.006-.024a2.12 2.12 0 0 1 .04-.136l.013-.039c.01-.032.021-.063.033-.094l.02-.05a1.377 1.377 0 0 1 .056-.133l.035-.076.027-.053.038-.072a1.353 1.353 0 0 1 .071-.122l.03-.05.046-.07.031-.046c.017-.025.036-.049.054-.074l.028-.039.076-.094.011-.014.092-.104.03-.031.067-.069.039-.037.063-.059.043-.038.063-.054.046-.037.065-.05.048-.035.068-.047.048-.032a1.8 1.8 0 0 1 .073-.046l.048-.029.082-.046.042-.023.118-.059.009-.004c.043-.02.086-.039.13-.057l.043-.017.091-.035.052-.018.084-.028.057-.017.082-.023.06-.015a1.11 1.11 0 0 1 .083-.018l.061-.013.085-.015a2.218 2.218 0 0 1 .15-.02c.019-.002.038-.005.058-.006a1.68 1.68 0 0 1 .1-.007l.049-.003a2.514 2.514 0 0 1 .302 0c.017 0 .033.002.049.003l.1.007.058.006.09.011.061.009a1.159 1.159 0 0 1 .146.028l.083.018.06.015.082.023.057.017.084.028.052.018.091.035.043.017c.044.018.087.037.13.057l.009.004.118.059.042.023.082.046.048.029.073.046.048.032.068.047a1.456 1.456 0 0 1 .113.085l.046.037.063.054.043.038.063.059a1.328 1.328 0 0 1 .106.106l.03.031c.031.034.062.068.092.104l.011.014a3.464 3.464 0 0 1 .158.207l.031.046.046.07.03.05.042.07.029.052.038.072.027.053.035.076.023.052.033.081.02.05.033.094.013.039.04.136.006.024c.01.038.019.076.027.115l.01.05.014.073h2.074a.184.184 0 0 0 .186-.182v-2.062h-.787v-.984h.787v-1.264c0-.596-.366-1.124-.933-1.345l-1.888-.737h-7.146v6.574zm0-7.558h6.48l-1.818-4.158a1.287 1.287 0 0 0-1.185-.763h-3.477v4.921zM8.252 26.216c1.146 0 2.078-.909 2.078-2.027s-.932-2.027-2.078-2.027a1.91 1.91 0 0 0-.107.003c-.955.047-1.742.727-1.929 1.616l-.019.1a1.957 1.957 0 0 0-.024.308c0 1.118.932 2.027 2.078 2.027zm-7.243-5.748h.787v.984h-.787v2.192c0 .029.024.052.054.052h4.144l.014-.072.01-.051a2.031 2.031 0 0 1 .033-.138 2.092 2.092 0 0 1 .054-.176l.032-.093.02-.051.032-.08.024-.054.035-.074.027-.054.038-.072.029-.052c.014-.024.027-.047.042-.07a1.358 1.358 0 0 1 .077-.12.917.917 0 0 1 .031-.046l.053-.073.029-.04a3.305 3.305 0 0 1 .179-.212l.03-.032a2.148 2.148 0 0 1 .17-.163l.044-.038.063-.053.046-.037.065-.05.048-.035.067-.047.049-.033.072-.045.048-.029.081-.046.042-.023a2.121 2.121 0 0 1 .127-.063c.043-.02.086-.039.13-.057l.043-.017.091-.035.053-.018.084-.028.057-.017.082-.023.06-.015a1.11 1.11 0 0 1 .083-.018l.061-.013.085-.015a2.218 2.218 0 0 1 .151-.02c.019-.002.038-.005.058-.006a1.68 1.68 0 0 1 .1-.007l.049-.003a2.514 2.514 0 0 1 .302 0c.017 0 .033.002.049.003l.1.007.058.006.09.011.06.009a1.159 1.159 0 0 1 .146.028l.083.018.06.015.082.023.057.017.084.028a3.247 3.247 0 0 1 .144.053l.043.017c.044.018.087.037.13.057l.01.005.117.058.042.023a3.326 3.326 0 0 1 .129.075l.072.045.049.033.067.047a1.456 1.456 0 0 1 .113.085l.046.037.063.053.044.038.063.059.039.037c.023.022.045.046.067.069l.03.031c.031.034.062.068.092.104l.012.015c.025.031.051.062.075.094l.029.039.054.074.031.046.046.07.031.05.042.07.029.052.038.072.026.053.035.076.023.052.033.081.019.05c.012.031.022.063.033.095l.013.039.04.136.005.022.028.117.009.048.015.074h8.717V9.073c0-.272.226-.492.504-.492h7.293c.012 0 .051 0 .075-.044s.003-.074-.004-.084l-1.578-2.31a.825.825 0 0 0-.684-.357H12.453a.28.28 0 0 0-.195.079l-.834.814a1.29 1.29 0 0 1-.908.367H1.83a.808.808 0 0 0-.817.797V20.47z" />
      <path
        d="M3.875 9.838h6.17c.713 0 1.293.566 1.293 1.262v2.87c0 .696-.58 1.262-1.293 1.262h-6.17c-.713 0-1.293-.566-1.293-1.262V11.1c0-.696.581-1.262 1.294-1.262zm-.284 4.132c0 .153.127.278.284.278h6.17a.28.28 0 0 0 .284-.278V11.1a.282.282 0 0 0-.284-.278h-6.17a.28.28 0 0 0-.284.278v2.87z" />
    </symbol>

    <symbol id="icon-camper-2" viewBox="0 0 32 32">
      <path
        d="M1.826 6.06h8.686a.276.276 0 0 0 .194-.079l.834-.814c.243-.237.565-.367.908-.367H25.62a1.84 1.84 0 0 1 1.523.795l1.579 2.31c.224.328.244.747.054 1.095s-.56.563-.964.563h-6.789v.669H24.5c.922 0 1.751.534 2.112 1.361l2.036 4.655 1.783.696c.952.372 1.568 1.258 1.568 2.259v4.311c0 .643-.536 1.166-1.195 1.166h-2.075c-.241 1.427-1.515 2.52-3.045 2.52s-2.804-1.092-3.045-2.52H11.297c-.241 1.427-1.515 2.52-3.045 2.52s-2.804-1.092-3.045-2.52H1.062c-.586 0-1.063-.465-1.063-1.037V7.84c0-.982.819-1.781 1.826-1.781zm23.859 20.156c1.146 0 2.078-.909 2.078-2.027s-.932-2.027-2.078-2.027-2.078.909-2.078 2.027.932 2.027 2.078 2.027zm-4.661-2.52h1.615l.014-.073a2.138 2.138 0 0 1 .037-.165l.006-.024a2.12 2.12 0 0 1 .04-.136l.013-.039c.01-.032.021-.063.033-.094l.02-.05a1.377 1.377 0 0 1 .056-.133l.035-.076.027-.053.038-.072a1.353 1.353 0 0 1 .071-.122l.03-.05.046-.07.031-.046c.017-.025.036-.049.054-.074l.028-.039.076-.094.011-.014.092-.104.03-.031.067-.069.039-.037.063-.059.043-.038.063-.054.046-.037.065-.05.048-.035.068-.047.048-.032a1.8 1.8 0 0 1 .073-.046l.048-.029.082-.046.042-.023.118-.059.009-.004c.043-.02.086-.039.13-.057l.043-.017.091-.035.052-.018.084-.028.057-.017.082-.023.06-.015a1.11 1.11 0 0 1 .083-.018l.061-.013.085-.015a2.218 2.218 0 0 1 .15-.02c.019-.002.038-.005.058-.006a1.68 1.68 0 0 1 .1-.007l.049-.003a2.514 2.514 0 0 1 .302 0c.017 0 .033.002.049.003l.1.007.058.006.09.011.061.009a1.159 1.159 0 0 1 .146.028l.083.018.06.015.082.023.057.017.084.028.052.018.091.035.043.017c.044.018.087.037.13.057l.009.004.118.059.042.023.082.046.048.029.073.046.048.032.068.047a1.456 1.456 0 0 1 .113.085l.046.037.063.054.043.038.063.059a1.328 1.328 0 0 1 .106.106l.03.031c.031.034.062.068.092.104l.011.014a3.464 3.464 0 0 1 .158.207l.031.046.046.07.03.05.042.07.029.052.038.072.027.053.035.076.023.052.033.081.02.05.033.094.013.039.04.136.006.024c.01.038.019.076.027.115l.01.05.014.073h2.074a.184.184 0 0 0 .186-.182v-2.062h-.787v-.984h.787v-1.264c0-.596-.366-1.124-.933-1.345l-1.888-.737h-7.146v6.574zm0-7.558h6.48l-1.818-4.158a1.287 1.287 0 0 0-1.185-.763h-3.477v4.921zM8.252 26.216c1.146 0 2.078-.909 2.078-2.027s-.932-2.027-2.078-2.027a1.91 1.91 0 0 0-.107.003c-.955.047-1.742.727-1.929 1.616l-.019.1a1.957 1.957 0 0 0-.024.308c0 1.118.932 2.027 2.078 2.027zm-7.243-5.748h.787v.984h-.787v2.192c0 .029.024.052.054.052h4.144l.014-.072.01-.051a2.031 2.031 0 0 1 .033-.138 2.092 2.092 0 0 1 .054-.176l.032-.093.02-.051.032-.08.024-.054.035-.074.027-.054.038-.072.029-.052c.014-.024.027-.047.042-.07a1.358 1.358 0 0 1 .077-.12.917.917 0 0 1 .031-.046l.053-.073.029-.04a3.305 3.305 0 0 1 .179-.212l.03-.032a2.148 2.148 0 0 1 .17-.163l.044-.038.063-.053.046-.037.065-.05.048-.035.067-.047.049-.033.072-.045.048-.029.081-.046.042-.023a2.121 2.121 0 0 1 .127-.063c.043-.02.086-.039.13-.057l.043-.017.091-.035.053-.018.084-.028.057-.017.082-.023.06-.015a1.11 1.11 0 0 1 .083-.018l.061-.013.085-.015a2.218 2.218 0 0 1 .151-.02c.019-.002.038-.005.058-.006a1.68 1.68 0 0 1 .1-.007l.049-.003a2.514 2.514 0 0 1 .302 0c.017 0 .033.002.049.003l.1.007.058.006.09.011.06.009a1.159 1.159 0 0 1 .146.028l.083.018.06.015.082.023.057.017.084.028a3.247 3.247 0 0 1 .144.053l.043.017c.044.018.087.037.13.057l.01.005.117.058.042.023a3.326 3.326 0 0 1 .129.075l.072.045.049.033.067.047a1.456 1.456 0 0 1 .113.085l.046.037.063.053.044.038.063.059.039.037c.023.022.045.046.067.069l.03.031c.031.034.062.068.092.104l.012.015c.025.031.051.062.075.094l.029.039.054.074.031.046.046.07.031.05.042.07.029.052.038.072.026.053.035.076.023.052.033.081.019.05c.012.031.022.063.033.095l.013.039.04.136.005.022.028.117.009.048.015.074h8.717V9.073c0-.272.226-.492.504-.492h7.293c.012 0 .051 0 .075-.044s.003-.074-.004-.084l-1.578-2.31a.825.825 0 0 0-.684-.357H12.453a.28.28 0 0 0-.195.079l-.834.814a1.29 1.29 0 0 1-.908.367H1.83a.808.808 0 0 0-.817.797V20.47z" />
      <path
        d="M14.081 9.838h3.191c.644 0 1.169.511 1.169 1.14V21.51a.498.498 0 0 1-.504.492h-4.52a.498.498 0 0 1-.504-.492V10.978c0-.629.524-1.14 1.169-1.14zm-.16 11.181h3.511v-5.787h-3.511v5.787zm0-6.771h3.511v-3.269a.158.158 0 0 0-.16-.156h-3.191c-.088 0-.16.07-.16.156v3.269z" />
    </symbol>

    <symbol id="icon-camper-3" viewBox="0 0 32 32">
      <path
        d="M1.826 6.06h8.686a.276.276 0 0 0 .194-.079l.834-.814c.243-.237.565-.367.908-.367H25.62a1.84 1.84 0 0 1 1.523.795l1.579 2.31c.224.328.244.747.054 1.095s-.56.563-.964.563h-6.789v.669H24.5c.922 0 1.751.534 2.112 1.361l2.036 4.655 1.783.696c.952.372 1.568 1.258 1.568 2.259v4.311c0 .643-.536 1.166-1.195 1.166h-2.075c-.241 1.427-1.515 2.52-3.045 2.52s-2.804-1.092-3.045-2.52H11.297c-.241 1.427-1.515 2.52-3.045 2.52s-2.804-1.092-3.045-2.52H1.062c-.586 0-1.063-.465-1.063-1.037V7.84c0-.982.819-1.781 1.826-1.781zm23.859 20.156c1.146 0 2.078-.909 2.078-2.027s-.932-2.027-2.078-2.027-2.078.909-2.078 2.027.932 2.027 2.078 2.027zm-4.661-2.52h1.615l.014-.073a2.138 2.138 0 0 1 .037-.165l.006-.024a2.12 2.12 0 0 1 .04-.136l.013-.039c.01-.032.021-.063.033-.094l.02-.05a1.377 1.377 0 0 1 .056-.133l.035-.076.027-.053.038-.072a1.353 1.353 0 0 1 .071-.122l.03-.05.046-.07.031-.046c.017-.025.036-.049.054-.074l.028-.039.076-.094.011-.014.092-.104.03-.031.067-.069.039-.037.063-.059.043-.038.063-.054.046-.037.065-.05.048-.035.068-.047.048-.032a1.8 1.8 0 0 1 .073-.046l.048-.029.082-.046.042-.023.118-.059.009-.004c.043-.02.086-.039.13-.057l.043-.017.091-.035.052-.018.084-.028.057-.017.082-.023.06-.015a1.11 1.11 0 0 1 .083-.018l.061-.013.085-.015a2.218 2.218 0 0 1 .15-.02c.019-.002.038-.005.058-.006a1.68 1.68 0 0 1 .1-.007l.049-.003a2.514 2.514 0 0 1 .302 0c.017 0 .033.002.049.003l.1.007.058.006.09.011.061.009a1.159 1.159 0 0 1 .146.028l.083.018.06.015.082.023.057.017.084.028.052.018.091.035.043.017c.044.018.087.037.13.057l.009.004.118.059.042.023.082.046.048.029.073.046.048.032.068.047a1.456 1.456 0 0 1 .113.085l.046.037.063.054.043.038.063.059a1.328 1.328 0 0 1 .106.106l.03.031c.031.034.062.068.092.104l.011.014a3.464 3.464 0 0 1 .158.207l.031.046.046.07.03.05.042.07.029.052.038.072.027.053.035.076.023.052.033.081.02.05.033.094.013.039.04.136.006.024c.01.038.019.076.027.115l.01.05.014.073h2.074a.184.184 0 0 0 .186-.182v-2.062h-.787v-.984h.787v-1.264c0-.596-.366-1.124-.933-1.345l-1.888-.737h-7.146v6.574zm0-7.558h6.48l-1.818-4.158a1.287 1.287 0 0 0-1.185-.763h-3.477v4.921zM8.252 26.216c1.146 0 2.078-.909 2.078-2.027s-.932-2.027-2.078-2.027a1.91 1.91 0 0 0-.107.003c-.955.047-1.742.727-1.929 1.616l-.019.1a1.957 1.957 0 0 0-.024.308c0 1.118.932 2.027 2.078 2.027zm-7.243-5.748h.787v.984h-.787v2.192c0 .029.024.052.054.052h4.144l.014-.072.01-.051a2.031 2.031 0 0 1 .033-.138 2.092 2.092 0 0 1 .054-.176l.032-.093.02-.051.032-.08.024-.054.035-.074.027-.054.038-.072.029-.052c.014-.024.027-.047.042-.07a1.358 1.358 0 0 1 .077-.12.917.917 0 0 1 .031-.046l.053-.073.029-.04a3.305 3.305 0 0 1 .179-.212l.03-.032a2.148 2.148 0 0 1 .17-.163l.044-.038.063-.053.046-.037.065-.05.048-.035.067-.047.049-.033.072-.045.048-.029.081-.046.042-.023a2.121 2.121 0 0 1 .127-.063c.043-.02.086-.039.13-.057l.043-.017.091-.035.053-.018.084-.028.057-.017.082-.023.06-.015a1.11 1.11 0 0 1 .083-.018l.061-.013.085-.015a2.218 2.218 0 0 1 .151-.02c.019-.002.038-.005.058-.006a1.68 1.68 0 0 1 .1-.007l.049-.003a2.514 2.514 0 0 1 .302 0c.017 0 .033.002.049.003l.1.007.058.006.09.011.06.009a1.159 1.159 0 0 1 .146.028l.083.018.06.015.082.023.057.017.084.028a3.247 3.247 0 0 1 .144.053l.043.017c.044.018.087.037.13.057l.01.005.117.058.042.023a3.326 3.326 0 0 1 .129.075l.072.045.049.033.067.047a1.456 1.456 0 0 1 .113.085l.046.037.063.053.044.038.063.059.039.037c.023.022.045.046.067.069l.03.031c.031.034.062.068.092.104l.012.015c.025.031.051.062.075.094l.029.039.054.074.031.046.046.07.031.05.042.07.029.052.038.072.026.053.035.076.023.052.033.081.019.05c.012.031.022.063.033.095l.013.039.04.136.005.022.028.117.009.048.015.074h8.717V9.073c0-.272.226-.492.504-.492h7.293c.012 0 .051 0 .075-.044s.003-.074-.004-.084l-1.578-2.31a.825.825 0 0 0-.684-.357H12.453a.28.28 0 0 0-.195.079l-.834.814a1.29 1.29 0 0 1-.908.367H1.83a.808.808 0 0 0-.817.797V20.47z" />
      <path
        d="M14.081 9.838h3.191c.644 0 1.169.511 1.169 1.14V21.51a.498.498 0 0 1-.504.492h-4.52a.498.498 0 0 1-.504-.492V10.978c0-.629.524-1.14 1.169-1.14zm-.16 11.181h3.511v-5.787h-3.511v5.787zm0-6.771h3.511v-3.269a.158.158 0 0 0-.16-.156h-3.191c-.088 0-.16.07-.16.156v3.269zM3.875 9.838h6.17c.713 0 1.293.566 1.293 1.262v2.87c0 .696-.58 1.262-1.293 1.262h-6.17c-.713 0-1.293-.566-1.293-1.262V11.1c0-.696.581-1.262 1.294-1.262zM3.59 13.97c0 .153.127.278.284.278h6.17a.28.28 0 0 0 .284-.278V11.1a.282.282 0 0 0-.284-.278h-6.17a.28.28 0 0 0-.284.278v2.87z" />
    </symbol>

    <symbol id="icon-shower" viewBox="0 0 32 32">
      <path stroke-linecap="round" stroke-linejoin="round" stroke-width="2"
        d="m5.333 5.333 3.333 3.333M18 8.667a6.6 6.6 0 0 0-9.334 9.334M20 6.667 6.667 20m12 2.667v.013m-5.334-1.347v.013m4-4.013v.013m4-4.013v.013m-6.666 13.321v.013m8-8.013v.013m4-4.013v.013" />
    </symbol>

    <symbol id="icon-tv" viewBox="0 0 32 32">
      <path stroke-linecap="round" stroke-linejoin="round" stroke-width="1.8"
        d="M24 26H8c-2.216 0-4-1.784-4-4V12c0-2.216 1.784-4 4-4h16c2.216 0 4 1.784 4 4v10c0 2.216-1.784 4-4 4zm-12 4h8M16 8l6-6m-6 6-6-6" />
    </symbol>

    <symbol id="icon-calendar" viewBox="0 0 32 32">
      <path stroke-linecap="round" stroke-linejoin="round" stroke-width="2.4"
        d="M25.333 5.333H6.666A2.667 2.667 0 0 0 3.999 8v18.667a2.667 2.667 0 0 0 2.667 2.667h18.667A2.667 2.667 0 0 0 28 26.667V8a2.667 2.667 0 0 0-2.667-2.667zm-4-2.666V8M10.667 2.667V8M4 13.333h24" />
    </symbol>

    <symbol id="icon-bed" viewBox="0 0 32 32">
      <path stroke-linecap="round" stroke-linejoin="round" stroke-width="2.24"
        d="M3 26v-7a4.012 4.012 0 0 1 4-4h18a4.012 4.012 0 0 1 4 4v7m-5-11H6V8.5A2.504 2.504 0 0 1 8.5 6h15A2.504 2.504 0 0 1 26 8.5V15h-2z" />
      <path stroke-linecap="round" stroke-linejoin="round" stroke-width="2.24"
        d="M3 26v-.5A1.504 1.504 0 0 1 4.5 24h23a1.504 1.504 0 0 1 1.5 1.5v.5M7 15v-1a2.002 2.002 0 0 1 2-2h5a2.002 2.002 0 0 1 2 2m0 0v1m0-1a2.008 2.008 0 0 1 2-2h5a2.002 2.002 0 0 1 2 2v1" />
    </symbol>

    <symbol id="icon-route" viewBox="0 0 32 32">
      <path
        d="M6.667 4a2.667 2.667 0 1 0 0 5.334 2.667 2.667 0 0 0 0-5.334zM1.333 6.667a5.333 5.333 0 1 1 10.666 0 5.333 5.333 0 0 1-10.666 0zm24 16a2.667 2.667 0 1 0 0 5.334 2.667 2.667 0 0 0 0-5.334zM20 25.333a5.333 5.333 0 1 1 10.667 0 5.333 5.333 0 0 1-10.667 0z" />
      <path
        d="M13.333 6.667c0-.736.597-1.333 1.333-1.333h8.4c4.13 0 5.62 5.404 1.987 7.429L9.58 21.567a1.295 1.295 0 0 0 .686 2.434h7.067a1.333 1.333 0 0 1 0 2.666h-7.067c-4.13 0-5.619-5.404-1.987-7.429l15.473-8.804A1.295 1.295 0 0 0 23.066 8h-8.4a1.333 1.333 0 0 1-1.333-1.333z" />
    </symbol>

    <symbol id="icon-gastronomy" viewBox="0 0 32 32">
      <path stroke-linecap="round" stroke-linejoin="round" stroke-width="2.4"
        d="M25.333 20V4c-6.421 6.125-6.697 11.092-6.667 16h6.667zm0 0v8H24v-4M10.667 5.333V28m-4-22.667v4a4.003 4.003 0 0 0 4 4 4.003 4.003 0 0 0 4-4v-4" />
    </symbol>

    <symbol id="icon-gasoline" viewBox="0 0 32 32">
      <path
        d="m26.36 9.64.013-.013-4.96-4.96L20 6.08l2.813 2.813a3.324 3.324 0 0 0-1.17 5.464 3.333 3.333 0 0 0 2.357.976c.48 0 .92-.107 1.333-.28v9.613a1.335 1.335 0 0 1-2.277.943 1.335 1.335 0 0 1-.391-.943v-6a2.668 2.668 0 0 0-2.667-2.667h-1.333V6.666a2.668 2.668 0 0 0-2.667-2.667h-8a2.668 2.668 0 0 0-2.667 2.667v21.333h13.333v-10h2v6.667a3.333 3.333 0 1 0 6.667-.001V11.998c0-.92-.373-1.76-.973-2.36zM16 18v7.333H8V16h8v2zm0-4.667H8V6.666h8v6.667zm8 0a1.333 1.333 0 1 1-.002-2.665A1.333 1.333 0 0 1 24 13.333z" />
    </symbol>

    <symbol id="icon-line-pd" viewBox="0 0 32 32">
      <path fill="none" stroke-linecap="round" stroke-linejoin="round" stroke-width="2.4"
        d="M22.667 14.667h2a2 2 0 0 0 0-4h-2v6.667m0 5.333V28H24a2.668 2.668 0 0 0 0-5.334h-1.333zM4 6.667a2.668 2.668 0 1 0 5.336 0 2.668 2.668 0 0 0-5.336 0z" />
      <path fill="none" stroke-linecap="round" stroke-linejoin="round" stroke-width="2.4"
        d="M6.667 9.333v4a1.335 1.335 0 0 0 1.334 1.334h4m-.001 0V24a1.33 1.33 0 0 0 1.334 1.333h4M12 14.667h5.333" />
    </symbol>

    <symbol id="icon-users" viewBox="0 0 32 32">
      <path
        d="M9.067 24.133h-4.4c-.267 0-.4-.133-.533-.267s-.267-.4-.133-.667c.8-2.267 2.8-3.6 5.067-3.6 2.8 0 5.067-2.4 5.067-5.2s-2.267-5.467-5.067-5.467c-2.8 0-5.067 2.4-5.067 5.333a5.69 5.69 0 0 0 1.333 3.6c-1.733.933-3.067 2.4-3.867 4.4-.267.933-.133 2.133.533 3.067s1.6 1.467 2.667 1.467h4.4c.8 0 1.333-.533 1.333-1.333s-.533-1.333-1.333-1.333zm-2.4-9.866c0-1.467 1.067-2.533 2.4-2.533s2.4 1.2 2.4 2.533c0 1.467-1.067 2.533-2.4 2.533s-2.4-1.2-2.4-2.533z" />
      <path
        d="M30.533 21.467c-.933-2.533-2.8-4.4-4.933-5.467 1.2-1.067 1.867-2.667 1.867-4.533C27.467 8 24.8 5.2 21.6 5.2s-5.867 2.8-5.867 6.267A6.35 6.35 0 0 0 17.6 16c-2.133 1.067-4 2.933-4.933 5.467-.667 1.2-.4 2.533.267 3.6s1.867 1.6 3.067 1.6h11.067c1.2 0 2.4-.667 3.067-1.6.8-1.067.933-2.4.4-3.6zM18.267 11.6c0-2 1.467-3.6 3.2-3.6s3.2 1.6 3.2 3.6-1.467 3.6-3.2 3.6-3.2-1.733-3.2-3.6zm9.6 12c-.133.133-.4.533-.8.533H16c-.533 0-.8-.4-.8-.533-.133-.133-.4-.667-.133-1.2 1.067-2.8 3.733-4.667 6.533-4.667s5.467 1.867 6.533 4.667c.133.533-.133 1.067-.267 1.2z" />
    </symbol>

    <symbol id="icon-wind" viewBox="0 0 20 16">
      <path
        d="M9.69 0C8.7518 0.000205607 7.84263 0.320331 7.11706 0.905952C6.39148 1.49157 5.89429 2.30654 5.71 3.21231L5.6375 3.57169C5.61823 3.65208 5.61559 3.73546 5.62974 3.81688C5.64389 3.89829 5.67454 3.97606 5.71986 4.04556C5.76519 4.11507 5.82426 4.17487 5.89355 4.22142C5.96285 4.26797 6.04095 4.30031 6.12321 4.31651C6.20547 4.3327 6.29019 4.33243 6.37234 4.31571C6.45449 4.29898 6.53238 4.26614 6.60137 4.21915C6.67035 4.17216 6.72903 4.11198 6.77389 4.04219C6.81875 3.97239 6.84889 3.89442 6.8625 3.81292L6.93625 3.45477C7.0748 2.7832 7.46155 2.18615 8.02159 1.77926C8.58162 1.37237 9.27509 1.1846 9.96769 1.25232C10.6603 1.32004 11.3027 1.63843 11.7705 2.14581C12.2384 2.6532 12.4983 3.31348 12.5 3.99877C12.5 4.73333 12.2037 5.43782 11.6763 5.95735C11.1489 6.47687 10.4335 6.7689 9.6875 6.76923H0.625C0.45924 6.76923 0.300269 6.83407 0.183058 6.94947C0.0658481 7.06488 0 7.22141 0 7.38462C0 7.54783 0.0658481 7.70435 0.183058 7.81976C0.300269 7.93517 0.45924 8 0.625 8H9.6875C10.7475 7.97443 11.7554 7.54194 12.496 6.79485C13.2367 6.04775 13.6514 5.04521 13.6517 4.0012C13.652 2.95719 13.2379 1.9544 12.4978 1.20686C11.7576 0.459308 10.75 0.0262118 9.69 0ZM16.875 5.53846C16.0462 5.53846 15.2513 5.86264 14.6653 6.43967C14.0792 7.01671 13.75 7.79933 13.75 8.61539C13.75 8.77859 13.8158 8.93512 13.9331 9.05053C14.0503 9.16594 14.2092 9.23077 14.375 9.23077C14.5408 9.23077 14.6997 9.16594 14.8169 9.05053C14.9342 8.93512 15 8.77859 15 8.61539C15 8.25025 15.11 7.89332 15.316 7.58972C15.522 7.28612 15.8149 7.04949 16.1575 6.90976C16.5001 6.77003 16.8771 6.73347 17.2408 6.8047C17.6045 6.87594 17.9386 7.05177 18.2008 7.30996C18.463 7.56815 18.6416 7.8971 18.714 8.25522C18.7863 8.61334 18.7492 8.98454 18.6073 9.32188C18.4654 9.65922 18.225 9.94755 17.9167 10.1504C17.6084 10.3533 17.2458 10.4615 16.875 10.4615H0.625C0.45924 10.4615 0.300269 10.5264 0.183058 10.6418C0.0658481 10.7572 0 10.9137 0 11.0769C0 11.2401 0.0658481 11.3967 0.183058 11.5121C0.300269 11.6275 0.45924 11.6923 0.625 11.6923H12.8125C13.2269 11.6931 13.624 11.856 13.9164 12.1451C14.2089 12.4342 14.3727 12.8258 14.3719 13.2338C14.371 13.6419 14.2056 14.0329 13.912 14.3208C13.6184 14.6087 13.2207 14.77 12.8062 14.7692C12.433 14.7695 12.0716 14.6396 11.7863 14.4026C11.501 14.1656 11.3101 13.8368 11.2475 13.4745L11.2413 13.4375C11.23 13.3559 11.2023 13.2773 11.1596 13.2065C11.117 13.1356 11.0603 13.0739 10.993 13.025C10.9257 12.9761 10.849 12.941 10.7677 12.9218C10.6863 12.9025 10.6019 12.8996 10.5194 12.9131C10.4368 12.9266 10.3579 12.9563 10.2872 13.0004C10.2166 13.0445 10.1556 13.1022 10.108 13.1699C10.0604 13.2376 10.0271 13.3141 10.01 13.3947C9.99298 13.4754 9.99254 13.5586 10.0087 13.6394L10.015 13.6763C10.1261 14.326 10.4675 14.916 10.9785 15.3414C11.4895 15.7668 12.1371 16.0001 12.8062 16C13.5528 16.0003 14.2691 15.7089 14.7976 15.1896C15.3261 14.6704 15.6237 13.9659 15.625 13.2308C15.625 12.6609 15.45 12.1317 15.1513 11.6923H16.875C17.7038 11.6923 18.4987 11.3681 19.0847 10.7911C19.6708 10.2141 20 9.43144 20 8.61539C20 7.79933 19.6708 7.01671 19.0847 6.43967C18.4987 5.86264 17.7038 5.53846 16.875 5.53846Z" />
    </symbol>
  </defs>
</svg>